<?xml version="1.0" standalone="no"?>
<!DOCTYPE svg PUBLIC "-//W3C//DTD SVG 20010904//EN"
 "http://www.w3.org/TR/2001/REC-SVG-20010904/DTD/svg10.dtd">
<svg version="1.0" xmlns="http://www.w3.org/2000/svg"
 width="1280.000000pt" height="1280.000000pt" viewBox="0 0 1280.000000 1280.000000"
 preserveAspectRatio="xMidYMid meet">
<metadata>
Created by potrace 1.14, written by Peter Selinger 2001-2017
</metadata>
<g transform="translate(0.000000,1280.000000) scale(0.100000,-0.100000)"
fill="#000000" stroke="none">
<path d="M0 6400 l0 -6400 6400 0 6400 0 0 6400 0 6400 -6400 0 -6400 0 0
-6400z m4173 3770 c430 -37 843 -152 1216 -339 l101 -51 0 -506 0 -506 -47 39
c-185 153 -480 323 -708 408 -380 142 -734 190 -1105 150 -847 -92 -1374 -687
-1574 -1775 -60 -327 -85 -613 -93 -1045 -28 -1602 340 -2581 1111 -2955 232
-113 509 -170 821 -170 530 0 1110 215 1548 573 l47 39 0 -506 0 -506 -88 -44
c-174 -87 -386 -171 -597 -234 -409 -124 -994 -157 -1462 -82 -587 94 -1063
335 -1448 731 -550 567 -854 1351 -947 2444 -17 199 -17 921 0 1120 76 892
295 1574 677 2115 479 676 1151 1046 2005 1103 115 8 434 6 543 -3z m3909
-337 c41 -120 324 -952 629 -1850 304 -897 556 -1629 559 -1627 3 3 289 834
636 1847 l631 1842 661 3 662 2 0 -3645 0 -3645 -455 0 -455 0 -2 3215 -3
3216 -647 -1913 -646 -1913 -375 -3 -374 -2 -85 247 c-47 137 -339 996 -649
1911 l-564 1663 -3 -3210 -2 -3211 -455 0 -455 0 0 3645 0 3645 659 0 659 0
74 -217z"/>
</g>
</svg>
